<svg width="40" height="40" viewBox="0 0 40 40" fill="none" xmlns="http://www.w3.org/2000/svg">
<path d="M30 27.5H25C24.6562 27.5 24.375 27.7812 24.375 28.125C24.375 28.4688 24.6562 28.75 25 28.75H30C30.3438 28.75 30.625 28.4688 30.625 28.125C30.625 27.7812 30.3438 27.5 30 27.5ZM10 18.75C9.3125 18.75 8.75 19.3062 8.75 20C8.75 20.6938 9.30625 21.25 10 21.25C10.6938 21.25 11.25 20.6938 11.25 20C11.25 19.3062 10.6938 18.75 10 18.75ZM10 26.875C9.3125 26.875 8.75 27.4312 8.75 28.125C8.75 28.8188 9.30625 29.375 10 29.375C10.6938 29.375 11.25 28.8188 11.25 28.125C11.25 27.4312 10.6938 26.875 10 26.875ZM30 11.25H25C24.6562 11.25 24.375 11.5312 24.375 11.875C24.375 12.2188 24.6562 12.5 25 12.5H30C30.3438 12.5 30.625 12.2188 30.625 11.875C30.625 11.5312 30.3438 11.25 30 11.25ZM20 0C8.95625 0 0 8.95625 0 20C0 31.0438 8.95625 40 20 40C31.0438 40 40 31.0438 40 20C40 8.95625 31.0438 0 20 0ZM32.5 29.375C32.5 30.0625 31.9375 30.625 31.25 30.625H8.75C8.0625 30.625 7.5 30.0625 7.5 29.375V26.875C7.5 26.1875 8.0625 25.625 8.75 25.625H31.25C31.9375 25.625 32.5 26.1875 32.5 26.875V29.375ZM32.5 21.25C32.5 21.9375 31.9375 22.5 31.25 22.5H8.75C8.0625 22.5 7.5 21.9375 7.5 21.25V18.75C7.5 18.0625 8.0625 17.5 8.75 17.5H31.25C31.9375 17.5 32.5 18.0625 32.5 18.75V21.25ZM32.5 13.125C32.5 13.8125 31.9375 14.375 31.25 14.375H8.75C8.0625 14.375 7.5 13.8125 7.5 13.125V10.625C7.5 9.9375 8.0625 9.375 8.75 9.375H31.25C31.9375 9.375 32.5 9.9375 32.5 10.625V13.125ZM10 10.625C9.3125 10.625 8.75 11.1812 8.75 11.875C8.75 12.5688 9.30625 13.125 10 13.125C10.6938 13.125 11.25 12.5688 11.25 11.875C11.25 11.1812 10.6938 10.625 10 10.625ZM30 19.375H25C24.6562 19.375 24.375 19.6562 24.375 20C24.375 20.3438 24.6562 20.625 25 20.625H30C30.3438 20.625 30.625 20.3438 30.625 20C30.625 19.6562 30.3438 19.375 30 19.375Z" fill="#E84E0F"/>
</svg>
