<svg width="24" height="23" viewBox="0 0 24 23" fill="none" xmlns="http://www.w3.org/2000/svg">
<path d="M15.75 0V4.90875C14.6475 4.2675 13.3687 3.89625 12 3.89625C10.6313 3.89625 9.3525 4.2675 8.25 4.90875V0C3.46125 1.575 0 6.0825 0 11.4C0 16.7175 3.46125 21.225 8.25 22.8V17.8913C9.3525 18.5325 10.6313 18.9037 12 18.9037C13.3687 18.9037 14.6475 18.5325 15.75 17.8913V22.8C20.5387 21.225 24 16.7175 24 11.4C24 6.0825 20.5387 1.575 15.75 0ZM12 17.4C8.685 17.4 6 14.715 6 11.4C6 8.085 8.685 5.4 12 5.4C15.315 5.4 18 8.085 18 11.4C18 14.715 15.315 17.4 12 17.4ZM20.2425 12.15C20.2425 12.5625 19.905 12.9 19.4925 12.9C19.08 12.9 18.7425 12.5625 18.7425 12.15V10.65C18.7425 10.2375 19.08 9.9 19.4925 9.9C19.905 9.9 20.2425 10.2375 20.2425 10.65V12.15Z" fill="#CACACA"/>
<path d="M14.8051 8.2275L11.9439 11.0887L10.2751 9.42C9.98263 9.1275 9.50638 9.1275 9.21388 9.42C8.92138 9.7125 8.92138 10.1887 9.21388 10.4812L11.4151 12.6825C11.5614 12.8287 11.7526 12.9037 11.9439 12.9037C12.1351 12.9037 12.3264 12.8287 12.4726 12.6825C12.4726 12.6825 12.4726 12.6825 12.4764 12.6787L15.8626 9.2925C16.1551 9 16.1551 8.52375 15.8626 8.23125C15.5701 7.93875 15.0939 7.93875 14.8014 8.23125L14.8051 8.2275Z" fill="#CACACA"/>
</svg>
