<svg width="24" height="24" viewBox="0 0 24 24" fill="none" xmlns="http://www.w3.org/2000/svg">
<path d="M24 12C24 5.37375 18.6263 -2.34894e-07 12 -5.24537e-07C5.37375 -8.14179e-07 -2.34894e-07 5.37375 -5.24537e-07 12C-8.14179e-07 18.6262 5.37375 24 12 24C18.6262 24 24 18.6262 24 12ZM10.6875 20.0737L4.30125 13.7025C3.93375 13.335 3.75 12.855 3.75 12.375C3.75 11.895 3.93375 11.4187 4.2975 11.0512C5.02875 10.3162 6.2175 10.3162 6.94875 11.0512L10.125 14.22L10.125 5.25C10.125 4.215 10.965 3.375 12 3.375C13.035 3.375 13.875 4.215 13.875 5.25L13.875 14.235L17.0738 11.04C17.805 10.3087 18.9937 10.3087 19.725 11.04C20.4562 11.775 20.4562 12.96 19.725 13.6912L13.3387 20.07C12.6075 20.8012 11.4225 20.8012 10.6912 20.07L10.6875 20.0737Z" fill="#E84E0F"/>
</svg>
