<svg width="49" height="48" viewBox="0 0 49 48" fill="none" xmlns="http://www.w3.org/2000/svg">
<path d="M24.5576 0C11.3051 0 0.557617 10.7475 0.557617 24C0.557617 37.2525 11.3051 48 24.5576 48C37.8101 48 48.5576 37.2525 48.5576 24C48.5576 10.7475 37.8101 0 24.5576 0ZM14.8076 10.5H28.3076C29.5526 10.5 30.5576 11.505 30.5576 12.75C30.5576 13.995 29.5526 15 28.3076 15H14.8076C13.5626 15 12.5576 13.995 12.5576 12.75C12.5576 11.505 13.5626 10.5 14.8076 10.5ZM19.3076 37.5H14.8076C13.5626 37.5 12.5576 36.495 12.5576 35.25C12.5576 34.005 13.5626 33 14.8076 33H19.3076C20.5526 33 21.5576 34.005 21.5576 35.25C21.5576 36.495 20.5526 37.5 19.3076 37.5ZM28.3076 30H14.8076C13.5626 30 12.5576 28.995 12.5576 27.75C12.5576 26.505 13.5626 25.5 14.8076 25.5H28.3076C29.5526 25.5 30.5576 26.505 30.5576 27.75C30.5576 28.995 29.5526 30 28.3076 30ZM35.8076 22.5H14.8076C13.5626 22.5 12.5576 21.495 12.5576 20.25C12.5576 19.005 13.5626 18 14.8076 18H35.8076C37.0526 18 38.0576 19.005 38.0576 20.25C38.0576 21.495 37.0526 22.5 35.8076 22.5Z" fill="#A4D8DE"/>
</svg>
