<svg width="48" height="48" viewBox="0 0 48 48" fill="none" xmlns="http://www.w3.org/2000/svg">
<path d="M24 0C10.7475 0 0 10.7475 0 24C0 37.2525 10.7475 48 24 48C37.2525 48 48 37.2525 48 24C48 10.7475 37.2525 0 24 0ZM14.25 10.5H27.75C28.995 10.5 30 11.505 30 12.75C30 13.995 28.995 15 27.75 15H14.25C13.005 15 12 13.995 12 12.75C12 11.505 13.005 10.5 14.25 10.5ZM18.75 37.5H14.25C13.005 37.5 12 36.495 12 35.25C12 34.005 13.005 33 14.25 33H18.75C19.995 33 21 34.005 21 35.25C21 36.495 19.995 37.5 18.75 37.5ZM27.75 30H14.25C13.005 30 12 28.995 12 27.75C12 26.505 13.005 25.5 14.25 25.5H27.75C28.995 25.5 30 26.505 30 27.75C30 28.995 28.995 30 27.75 30ZM35.25 22.5H14.25C13.005 22.5 12 21.495 12 20.25C12 19.005 13.005 18 14.25 18H35.25C36.495 18 37.5 19.005 37.5 20.25C37.5 21.495 36.495 22.5 35.25 22.5Z" fill="#A4D8DE"/>
</svg>
