<svg width="18" height="16" viewBox="0 0 18 16" fill="none" xmlns="http://www.w3.org/2000/svg">
<path d="M1.5 15.3135H4.5C5.33 15.3135 6 14.6435 6 13.8135C6 12.9835 5.33 12.3135 4.5 12.3135H1.5C0.67 12.3135 0 12.9835 0 13.8135C0 14.6435 0.67 15.3135 1.5 15.3135ZM1.5 9.31354H10.5C11.33 9.31354 12 8.64354 12 7.81354C12 6.98354 11.33 6.31354 10.5 6.31354H1.5C0.67 6.31354 0 6.98354 0 7.81354C0 8.64354 0.67 9.31354 1.5 9.31354ZM1.5 3.31354H16.5C17.33 3.31354 18 2.64354 18 1.81354C18 0.983538 17.33 0.313538 16.5 0.313538H1.5C0.67 0.313538 0 0.983538 0 1.81354C0 2.64354 0.67 3.31354 1.5 3.31354Z" fill="#1E1E1E"/>
</svg>
