<svg width="40" height="40" viewBox="0 0 40 40" fill="none" xmlns="http://www.w3.org/2000/svg">
<path d="M20 14.1313C16.7563 14.1313 14.1313 16.7563 14.1313 20C14.1313 23.2437 16.7563 25.8687 20 25.8687C23.2437 25.8687 25.8687 23.2437 25.8687 20C25.8687 16.7563 23.2375 14.1313 20 14.1313Z" fill="#017176"/>
<path d="M20 0C8.95625 0 0 8.95625 0 20C0 31.0438 8.95625 40 20 40C31.0438 40 40 31.0438 40 20C40 8.95625 31.0438 0 20 0ZM33.3 25.6562L31.55 28.6938C31.2062 29.2938 30.4375 29.4937 29.8438 29.15L28.2188 28.2125C27.775 27.9562 27.2125 27.9937 26.8125 28.325C25.9188 29.0625 24.9 29.65 23.7938 30.0688C23.3125 30.25 23 30.7125 23 31.2313V33.1063C23 33.7938 22.4375 34.3563 21.75 34.3563H18.2437C17.5562 34.3563 16.9937 33.7938 16.9937 33.1063V31.2313C16.9937 30.7188 16.6812 30.25 16.2 30.0688C15.0938 29.65 14.0813 29.0625 13.1875 28.325C12.7875 28 12.2312 27.9562 11.7812 28.2125L10.1562 29.15C9.55625 29.4937 8.79375 29.2875 8.45 28.6938L6.7 25.6562C6.35625 25.0562 6.5625 24.2938 7.15625 23.95L8.78125 23.0125C9.23125 22.7563 9.475 22.2437 9.3875 21.7375C9.29375 21.175 9.2375 20.5937 9.2375 20.0062C9.2375 19.4125 9.2875 18.8375 9.3875 18.275C9.475 17.7625 9.23125 17.2563 8.78125 17L7.15625 16.0625C6.55625 15.7188 6.35625 14.95 6.7 14.3562L8.45 11.3188C8.79375 10.7188 9.5625 10.5187 10.1562 10.8625L11.7812 11.8C12.225 12.0562 12.7875 12.0188 13.1875 11.6875C14.0813 10.95 15.1 10.3625 16.2062 9.94375C16.6875 9.7625 17 9.3 17 8.78125V6.90625C17 6.21875 17.5625 5.65625 18.25 5.65625H21.7563C22.4438 5.65625 23.0063 6.21875 23.0063 6.90625V8.78125C23.0063 9.29375 23.3188 9.75625 23.8 9.94375C24.9063 10.3625 25.9188 10.95 26.8125 11.6875C27.2125 12.0125 27.7688 12.0562 28.2188 11.8L29.8438 10.8625C30.4438 10.5187 31.2062 10.725 31.55 11.3188L33.3 14.3562C33.6437 14.9562 33.4375 15.7188 32.8438 16.0625L31.2188 17C30.7688 17.2563 30.525 17.7687 30.6125 18.275C30.7062 18.8375 30.7625 19.4187 30.7625 20.0062C30.7625 20.6 30.7125 21.175 30.6125 21.7438C30.525 22.2563 30.7688 22.7625 31.2188 23.0188L32.8438 23.9563C33.4437 24.3 33.6437 25.0688 33.3 25.6625V25.6562Z" fill="#017176"/>
</svg>
