<svg width="40" height="40" viewBox="0 0 40 40" fill="none" xmlns="http://www.w3.org/2000/svg">
<path d="M20 0C8.95625 0 0 8.95625 0 20C0 31.0438 8.95625 40 20 40C31.0438 40 40 31.0438 40 20C40 8.95625 31.0438 0 20 0ZM13.125 8.125C15.8875 8.125 18.125 10.3625 18.125 13.125C18.125 15.8875 15.8875 18.125 13.125 18.125C10.3625 18.125 8.125 15.8875 8.125 13.125C8.125 10.3625 10.3625 8.125 13.125 8.125ZM18.8438 27.4875L16.6812 31.225C16.4563 31.6125 16.0437 31.85 15.6 31.85H11.2812C10.8375 31.85 10.425 31.6125 10.2 31.225L8.0375 27.4875C7.8125 27.1 7.8125 26.625 8.0375 26.2375L10.2 22.5C10.425 22.1125 10.8375 21.875 11.2812 21.875H15.6C16.0437 21.875 16.4563 22.1125 16.6812 22.5L18.8438 26.2375C19.0688 26.625 19.0688 27.1 18.8438 27.4875ZM22.5 10C22.5 9.3125 23.0625 8.75 23.75 8.75H30C30.6875 8.75 31.25 9.3125 31.25 10V16.25C31.25 16.9375 30.6875 17.5 30 17.5H23.75C23.0625 17.5 22.5 16.9375 22.5 16.25V10ZM32.25 26.3687L30.3938 28.125C30.2438 28.2687 30.175 28.475 30.2063 28.675L30.6 31.2C30.6812 31.7125 30.1375 32.0938 29.6813 31.8438L27.4375 30.6188C27.2563 30.5188 27.0375 30.5187 26.8563 30.6125L24.575 31.7688C24.1125 32 23.5812 31.6063 23.6812 31.0938L24.15 28.5812C24.1875 28.3813 24.125 28.1688 23.9812 28.025L22.1813 26.2125C21.8188 25.8438 22.0312 25.2188 22.5438 25.15L25.075 24.8187C25.2812 24.7937 25.4563 24.6687 25.55 24.4812L26.7125 22.2062C26.95 21.7437 27.6125 21.7563 27.8312 22.225L28.925 24.5312C29.0125 24.7188 29.1875 24.85 29.3875 24.8813L31.9125 25.2875C32.425 25.3687 32.6188 26 32.2438 26.3562L32.25 26.3687Z" fill="#04989E"/>
</svg>
