<svg width="40" height="40" viewBox="0 0 40 40" fill="none" xmlns="http://www.w3.org/2000/svg">
<path d="M20 0C8.95625 0 0 8.95625 0 20C0 31.0438 8.95625 40 20 40C31.0438 40 40 31.0438 40 20C40 8.95625 31.0438 0 20 0ZM10.625 30C9.24375 30 8.125 28.8813 8.125 27.5C8.125 26.1187 9.24375 25 10.625 25C12.0063 25 13.125 26.1187 13.125 27.5C13.125 28.8813 12.0063 30 10.625 30ZM10.625 22.5C9.24375 22.5 8.125 21.3813 8.125 20C8.125 18.6187 9.24375 17.5 10.625 17.5C12.0063 17.5 13.125 18.6187 13.125 20C13.125 21.3813 12.0063 22.5 10.625 22.5ZM10.625 15C9.24375 15 8.125 13.8813 8.125 12.5C8.125 11.1187 9.24375 10 10.625 10C12.0063 10 13.125 11.1187 13.125 12.5C13.125 13.8813 12.0063 15 10.625 15ZM31.875 20C31.875 21.0375 31.0375 21.875 30 21.875H17.5C16.4625 21.875 15.625 21.0375 15.625 20C15.625 18.9625 16.4625 18.125 17.5 18.125H30C31.0375 18.125 31.875 18.9625 31.875 20ZM17.5 25.625H30C31.0375 25.625 31.875 26.4625 31.875 27.5C31.875 28.5375 31.0375 29.375 30 29.375H17.5C16.4625 29.375 15.625 28.5375 15.625 27.5C15.625 26.4625 16.4625 25.625 17.5 25.625ZM30.0688 14.375H17.4312C16.4312 14.375 15.625 13.5375 15.625 12.5C15.625 11.4625 16.4312 10.625 17.4312 10.625H30.0688C31.0688 10.625 31.875 11.4625 31.875 12.5C31.875 13.5375 31.0688 14.375 30.0688 14.375Z" fill="#BA9011"/>
</svg>
