<svg width="51" height="51" viewBox="0 0 51 51" fill="none" xmlns="http://www.w3.org/2000/svg">
<path d="M49.334 41.7612L35.8413 28.6672C38.0692 25.1708 39.1758 20.9329 38.5891 16.4013C37.4412 7.53612 29.7335 0.557561 20.5432 0.0334897C9.30232 -0.608336 -0.0186379 8.0589 2.79863e-05 18.8341C0.0186939 28.882 8.49969 37.3293 18.8486 37.5945C22.3751 37.6851 25.6923 36.8595 28.5735 35.3468L42.257 48.6285C44.2116 50.5255 47.3795 50.5255 49.3327 48.6285C51.286 46.7315 51.2873 43.6569 49.3327 41.7599L49.334 41.7612ZM19.3726 29.9289C13.0408 29.9289 7.90771 24.9456 7.90771 18.8004C7.90771 12.6552 13.0408 7.67199 19.3726 7.67199C25.7043 7.67199 30.8375 12.6539 30.8375 18.8004C30.8375 24.9469 25.7043 29.9289 19.3726 29.9289Z" fill="#04989E"/>
</svg>
