<svg width="13" height="12" viewBox="0 0 13 12" fill="none" xmlns="http://www.w3.org/2000/svg">
<path d="M6.48445 0.00520484C3.16889 0.00387902 0.480378 2.68974 0.481703 6C0.481703 9.31159 3.16889 11.9961 6.48578 11.9961C9.80134 11.9948 12.4899 9.31159 12.4899 6C12.4899 2.68841 9.80134 0.005205 6.4871 0.00520467L6.48445 0.00520484ZM9.861 6.93727L7.79822 6.93727C7.59141 6.93727 7.42305 7.10563 7.42305 7.31244V9.36727C7.42305 9.57408 7.25468 9.74244 7.04787 9.74244L5.92103 9.74244C5.71422 9.74244 5.54586 9.57408 5.54586 9.36727V7.31244C5.54586 7.10563 5.3775 6.93727 5.17069 6.93727L3.10791 6.93727C2.9011 6.93727 2.73273 6.7689 2.73273 6.56209V5.43525C2.73273 5.22845 2.9011 5.06008 3.10791 5.06008H5.17069C5.3775 5.06008 5.54586 4.89172 5.54586 4.68491L5.54586 2.63008C5.54586 2.42327 5.71422 2.25491 5.92103 2.25491L7.04787 2.25491C7.25468 2.25491 7.42305 2.42327 7.42304 2.63008L7.42305 4.68491C7.42305 4.89172 7.59141 5.06008 7.79822 5.06008H9.861C10.0678 5.06008 10.2362 5.22845 10.2362 5.43525V6.56209C10.2362 6.7689 10.0678 6.93727 9.861 6.93727Z" fill="white"/>
</svg>
