<svg width="47" height="46" viewBox="0 0 47 46" fill="none" xmlns="http://www.w3.org/2000/svg">
<path d="M16.4892 20.2723H30.5108C32.3987 20.2723 33.9444 18.7733 33.9444 16.9411V3.33246C33.9444 1.49897 32.3987 0 30.5108 0H16.4892C14.6 0 13.0556 1.49897 13.0556 3.33246V16.9411C13.0556 18.7733 14.6 20.2735 16.4892 20.2735V20.2723ZM19.8066 6.55089C21.8472 4.57168 25.1515 4.57295 27.1921 6.55089C29.2314 8.53009 29.2314 11.7384 27.1921 13.7188C25.1515 15.6981 21.8485 15.6981 19.8066 13.7188C17.7686 11.7384 17.7686 8.53136 19.8066 6.55089Z" fill="#1E1E1E"/>
<path d="M17.4553 25.3419H3.43361C1.54578 25.3419 0 26.8409 0 28.6744V42.283C0 44.1152 1.54447 45.6155 3.43361 45.6155H17.4553C19.3431 45.6155 20.8889 44.1165 20.8889 42.2843V28.6757C20.8889 26.8422 19.3444 25.3419 17.4553 25.3419ZM14.1365 39.0633C12.0986 41.0425 8.7903 41.0425 6.75233 39.0633C4.71175 37.0828 4.71175 33.8733 6.75233 31.8941C8.7903 29.9149 12.0986 29.9161 14.1365 31.8941C16.1771 33.8745 16.1771 37.0828 14.1365 39.0633Z" fill="#1E1E1E"/>
<path d="M43.5664 25.3419H29.5447C27.6569 25.3419 26.1111 26.8409 26.1111 28.6744V42.283C26.1111 44.1152 27.6556 45.6155 29.5447 45.6155H43.5664C45.4542 45.6155 47 44.1165 47 42.2843V28.6757C47 26.8422 45.4555 25.3419 43.5664 25.3419ZM40.2464 39.0633C38.2071 41.0425 34.9014 41.0425 32.8621 39.0633C30.8229 37.0828 30.8229 33.8733 32.8621 31.8941C34.9014 29.9149 38.2071 29.9161 40.2464 31.8941C42.2869 33.8745 42.2869 37.0828 40.2464 39.0633Z" fill="#1E1E1E"/>
</svg>
