<svg width="12" height="12" viewBox="0 0 12 12" fill="none" xmlns="http://www.w3.org/2000/svg">
<path fill-rule="evenodd" clip-rule="evenodd" d="M0.292895 0.292893C0.683419 -0.0976311 1.31658 -0.0976311 1.70711 0.292893L10.8995 9.48528C11.29 9.87581 11.29 10.509 10.8995 10.8995C10.509 11.29 9.87581 11.29 9.48528 10.8995L0.292895 1.70711C-0.0976295 1.31658 -0.0976295 0.683417 0.292895 0.292893Z" fill="white"/>
<path fill-rule="evenodd" clip-rule="evenodd" d="M0.292893 10.8995C-0.0976311 10.509 -0.0976311 9.87583 0.292893 9.48531L9.48528 0.29292C9.87581 -0.0976045 10.509 -0.0976042 10.8995 0.29292C11.29 0.683444 11.29 1.31661 10.8995 1.70713L1.70711 10.8995C1.31658 11.29 0.683417 11.29 0.292893 10.8995Z" fill="white"/>
</svg>
