<svg width="33" height="33" viewBox="0 0 33 33" fill="none" xmlns="http://www.w3.org/2000/svg">
<path d="M16.4997 31.692C8.16017 31.692 1.3754 24.8769 1.3754 16.5C1.3754 8.12313 8.16017 1.30799 16.4997 1.30799C24.8392 1.30799 31.6235 8.12313 31.6235 16.5C31.6235 24.8769 24.8392 31.692 16.4997 31.692Z" fill="white"/>
<path d="M16.4997 2.61597C24.1335 2.61597 30.3219 8.83206 30.3219 16.5C30.3219 24.1679 24.1335 30.384 16.4997 30.384C8.86594 30.384 2.67756 24.1679 2.67756 16.5C2.67756 8.83206 8.86594 2.61597 16.4997 2.61597ZM16.4997 0C7.4419 0 0.0732422 7.40164 0.0732422 16.5C0.0732422 25.5984 7.4419 33 16.4997 33C25.5575 33 32.9262 25.5984 32.9262 16.5C32.9262 7.40164 25.557 0 16.4997 0Z" fill="#017176"/>
<path d="M16.4997 29.6704C9.2696 29.6704 3.3875 23.7619 3.3875 16.5C3.3875 9.23805 9.2696 3.32961 16.4997 3.32961C23.7298 3.32961 29.6114 9.23753 29.6114 16.5C29.6114 23.7625 23.7293 29.6704 16.4997 29.6704Z" fill="#EDEDED"/>
<path d="M16.4997 4.1144C23.3095 4.1144 28.8301 9.65975 28.8301 16.5C28.8301 23.3402 23.3095 28.8856 16.4997 28.8856C9.68994 28.8856 4.16931 23.3402 4.16931 16.5C4.16931 9.65975 9.68942 4.1144 16.4997 4.1144ZM16.4997 2.54482C8.83885 2.54482 2.60672 8.80485 2.60672 16.5C2.60672 24.1951 8.83885 30.4552 16.4997 30.4552C24.1606 30.4552 30.3927 24.1951 30.3927 16.5C30.3927 8.80485 24.16 2.54482 16.4997 2.54482Z" fill="#89CED9"/>
<path d="M12.3885 21.676C9.54722 21.676 7.23563 19.354 7.23563 16.4995C7.23563 13.6449 9.54722 11.3235 12.3885 11.3235C15.2298 11.3235 17.542 13.6454 17.542 16.4995C17.542 19.3535 15.2304 21.676 12.3885 21.676Z" fill="#EDEDED"/>
<path d="M12.3885 12.3704C14.659 12.3704 16.4997 14.2194 16.4997 16.5C16.4997 18.7806 14.659 20.6296 12.3885 20.6296C10.1181 20.6296 8.27736 18.7806 8.27736 16.5C8.27736 14.2194 10.1181 12.3704 12.3885 12.3704ZM12.3885 10.2776C8.97271 10.2776 6.19391 13.0689 6.19391 16.5C6.19391 19.9311 8.97271 22.7224 12.3885 22.7224C15.8044 22.7224 18.5832 19.9311 18.5832 16.5C18.5832 13.0689 15.8044 10.2776 12.3885 10.2776Z" fill="#E84E0F"/>
<path d="M11.8541 18.5216C12.9657 18.5216 13.8667 17.6165 13.8667 16.5C13.8667 15.3835 12.9657 14.4784 11.8541 14.4784C10.7426 14.4784 9.84151 15.3835 9.84151 16.5C9.84151 17.6165 10.7426 18.5216 11.8541 18.5216Z" fill="#E84E0F"/>
<path d="M19.1889 11.6699C20.232 11.6699 21.0776 10.8205 21.0776 9.77276C21.0776 8.72502 20.232 7.87565 19.1889 7.87565C18.1459 7.87565 17.3003 8.72502 17.3003 9.77276C17.3003 10.8205 18.1459 11.6699 19.1889 11.6699Z" fill="#04989E"/>
<path d="M23.8329 13.1829C24.2797 13.1829 24.6418 12.8192 24.6418 12.3704C24.6418 11.9217 24.2797 11.5579 23.8329 11.5579C23.3862 11.5579 23.024 11.9217 23.024 12.3704C23.024 12.8192 23.3862 13.1829 23.8329 13.1829Z" fill="#89CED9"/>
<path d="M14.1225 25.3776C14.5692 25.3776 14.9314 25.0138 14.9314 24.565C14.9314 24.1163 14.5692 23.7525 14.1225 23.7525C13.6757 23.7525 13.3136 24.1163 13.3136 24.565C13.3136 25.0138 13.6757 25.3776 14.1225 25.3776Z" fill="#89CED9"/>
<path d="M13.4553 9.48709C13.902 9.48709 14.2642 9.12331 14.2642 8.67457C14.2642 8.22583 13.902 7.86205 13.4553 7.86205C13.0085 7.86205 12.6464 8.22583 12.6464 8.67457C12.6464 9.12331 13.0085 9.48709 13.4553 9.48709Z" fill="#89CED9"/>
<path d="M21.1172 18.4259C20.901 18.4259 20.6864 18.3364 20.5317 18.1617C20.2458 17.8373 20.2754 17.3413 20.5984 17.0535L23.3147 14.6364C23.6387 14.3486 24.1314 14.38 24.4179 14.7033C24.7038 15.0277 24.6741 15.5237 24.3512 15.8115L21.6349 18.2286C21.4859 18.361 21.301 18.4259 21.1172 18.4259Z" fill="#E84E0F"/>
<path d="M22.4756 19.9641C22.2594 19.9641 22.0448 19.8746 21.8901 19.6999C21.6042 19.3755 21.6339 18.8795 21.9568 18.5917L24.6731 16.1746C24.9971 15.8868 25.4898 15.9177 25.7763 16.2415C26.0622 16.5659 26.0325 17.0619 25.7096 17.3497L22.9933 19.7668C22.8443 19.8992 22.6594 19.9641 22.4756 19.9641Z" fill="#E84E0F"/>
<path d="M21.6755 25.3504C21.5115 25.3504 21.3458 25.2986 21.2047 25.1913L18.3102 22.9923C17.9665 22.7307 17.8982 22.2389 18.1587 21.8926C18.4191 21.5473 18.9082 21.4787 19.2535 21.7403L22.1479 23.9393C22.4917 24.2009 22.56 24.6927 22.2995 25.0391C22.1459 25.2431 21.912 25.3504 21.6755 25.3504Z" fill="#04989E"/>
</svg>
