<svg width="523" height="521" viewBox="0 0 523 521" fill="none" xmlns="http://www.w3.org/2000/svg">
<g opacity="0.05">
<path d="M448.102 207.062C477.546 309.493 417.718 416.911 314.735 446.514C211.751 476.117 104.013 416.867 74.5686 314.436C45.1242 212.005 104.955 104.593 207.938 74.9903C310.921 45.3872 418.658 104.631 448.102 207.062Z" fill="white"/>
<path d="M90.6486 309.814C63.6961 216.052 118.266 118.076 212.533 90.9777C306.801 63.8799 405.069 117.922 432.022 211.684C458.974 305.446 404.405 403.423 310.137 430.52C215.869 457.618 117.601 403.576 90.6486 309.814ZM58.4885 319.059C90.4689 430.312 207.479 494.661 319.332 462.508C431.185 430.355 496.162 313.693 464.182 202.44C432.202 91.1864 315.191 26.8372 203.338 58.99C91.4855 91.1428 26.51 207.812 58.4885 319.059Z" fill="#017176"/>
<path d="M423.248 214.206C448.776 303.01 396.907 396.138 307.63 421.801C218.354 447.464 124.949 396.096 99.4219 307.292C73.8946 218.488 125.759 125.369 215.042 99.7039C304.325 74.039 397.723 125.408 423.248 214.206Z" fill="#EDEDED"/>
<path d="M109.07 304.519C85.0267 220.877 133.708 133.473 217.8 109.3C301.893 85.1275 389.557 133.338 413.6 216.98C437.644 300.621 388.962 388.025 304.87 412.198C220.778 436.371 133.115 388.166 109.07 304.519ZM89.7739 310.065C116.822 404.16 215.785 458.584 310.387 431.391C404.989 404.197 459.945 305.528 432.897 211.433C405.848 117.338 306.885 62.9137 212.283 90.1077C117.681 117.302 62.7276 215.977 89.7739 310.065Z" fill="#89CED9"/>
<path d="M339.482 292.953C349.514 327.852 329.13 364.45 294.037 374.537C258.944 384.625 222.244 364.437 212.212 329.538C202.18 294.64 222.562 258.035 257.649 247.949C292.736 237.864 329.449 258.048 339.482 292.953Z" fill="#EDEDED"/>
<path d="M225.083 325.838C217.066 297.952 233.298 268.809 261.335 260.749C289.372 252.69 318.602 268.764 326.618 296.651C334.635 324.538 318.403 353.681 290.366 361.741C262.329 369.8 233.099 353.725 225.083 325.838ZM199.354 333.234C211.415 375.189 255.541 399.456 297.722 387.331C339.903 375.205 364.407 331.211 352.347 289.256C340.286 247.301 296.16 223.034 253.979 235.159C211.798 247.284 187.294 291.279 199.354 333.234Z" fill="#E84E0F"/>
<path d="M302.591 310.664C298.666 297.012 284.358 289.143 270.631 293.089C256.905 297.034 248.959 311.3 252.884 324.953C256.808 338.605 271.117 346.474 284.843 342.529C298.569 338.583 306.515 324.317 302.591 310.664Z" fill="#E84E0F"/>
<path d="M192.46 244.788C188.777 231.976 175.35 224.592 162.469 228.295C149.589 231.997 142.132 245.385 145.815 258.196C149.498 271.008 162.925 278.392 175.806 274.69C188.686 270.987 196.143 257.599 192.46 244.788Z" fill="#04989E"/>
<path d="M194.665 182.4C193.087 176.913 187.337 173.751 181.82 175.336C176.303 176.922 173.11 182.656 174.687 188.143C176.264 193.63 182.015 196.793 187.532 195.207C193.049 193.621 196.242 187.888 194.665 182.4Z" fill="#89CED9"/>
<path d="M378.867 258.575C377.29 253.088 371.539 249.925 366.022 251.511C360.505 253.097 357.312 258.831 358.889 264.318C360.466 269.805 366.217 272.967 371.734 271.382C377.251 269.796 380.444 264.062 378.867 258.575Z" fill="#89CED9"/>
<path d="M185.869 322.926C184.292 317.439 178.541 314.276 173.024 315.862C167.508 317.447 164.314 323.181 165.892 328.668C167.469 334.156 173.22 337.318 178.736 335.732C184.253 334.147 187.447 328.413 185.869 322.926Z" fill="#89CED9"/>
<path d="M268.709 197.229C269.472 199.884 269.13 202.836 267.528 205.354C264.549 210.012 258.347 211.4 253.669 208.451L214.363 183.63C209.681 180.667 208.327 174.504 211.291 169.843C214.269 165.184 220.472 163.796 225.149 166.746L264.456 191.567C266.609 192.929 268.059 194.971 268.709 197.229Z" fill="#E84E0F"/>
<path d="M282.823 175.108C283.586 177.763 283.244 180.715 281.642 183.233C278.663 187.892 272.461 189.28 267.783 186.33L228.477 161.509C223.795 158.547 222.435 152.385 225.405 147.722C228.383 143.064 234.586 141.676 239.263 144.625L278.57 169.446C280.723 170.808 282.174 172.85 282.823 175.108Z" fill="#E84E0F"/>
<path d="M351.865 165.9C352.444 167.916 352.392 170.133 351.572 172.246L334.758 215.568C332.755 220.715 326.95 223.291 321.773 221.316C316.608 219.338 314.039 213.573 316.035 208.407L332.85 165.084C334.852 159.938 340.657 157.361 345.835 159.336C348.886 160.502 351.03 162.996 351.865 165.9Z" fill="#04989E"/>
</g>
</svg>
