<svg width="509" height="509" viewBox="0 0 509 509" fill="none" xmlns="http://www.w3.org/2000/svg">
<g opacity="0.1">
<path d="M105.79 168.642C152.878 87.083 257.899 59.2451 339.897 106.587C421.896 153.929 450.298 258.799 403.21 340.358C356.122 421.917 251.104 449.75 169.105 402.408C87.1065 355.066 58.7015 250.201 105.79 168.642Z" fill="white"/>
<path d="M390.407 332.966C347.303 407.623 251.514 433.013 176.455 389.678C101.396 346.342 75.4901 250.691 118.593 176.034C161.696 101.377 257.486 75.9865 332.545 119.322C407.604 162.658 433.51 258.309 390.407 332.966ZM416.014 347.75C467.157 259.166 436.311 145.272 347.25 93.8523C258.189 42.4328 144.13 72.6663 92.9862 161.25C41.8424 249.834 72.6887 363.728 161.75 415.148C250.811 466.567 364.873 436.329 416.014 347.75Z" fill="#017176"/>
<path d="M125.579 180.067C166.403 109.358 257.451 85.224 328.536 126.265C399.622 167.306 424.245 258.224 383.421 328.933C342.597 399.642 251.557 423.774 180.466 382.73C109.376 341.686 84.7579 250.771 125.579 180.067Z" fill="#EDEDED"/>
<path d="M375.739 324.497C337.288 391.096 251.835 413.747 184.878 375.089C117.921 336.431 94.8105 251.101 133.261 184.503C171.711 117.904 257.165 95.2533 324.122 133.911C391.079 172.569 414.192 257.894 375.739 324.497ZM391.103 333.368C434.359 258.446 408.271 162.119 332.945 118.629C257.619 75.14 161.153 100.71 117.897 175.632C74.6407 250.554 100.729 346.881 176.055 390.371C251.381 433.86 347.85 408.285 391.103 333.368Z" fill="#89CED9"/>
<path d="M227.047 185.041C243.09 157.254 278.871 147.77 306.814 163.902C334.756 180.035 344.427 215.761 328.384 243.549C312.341 271.336 276.557 280.826 248.62 264.696C220.683 248.566 211.001 212.834 227.047 185.041Z" fill="#EDEDED"/>
<path d="M318.136 237.632C305.317 259.836 276.824 267.389 254.5 254.5C232.176 241.611 224.47 213.16 237.29 190.955C250.11 168.751 278.602 161.198 300.926 174.087C323.251 186.976 330.956 215.427 318.136 237.632ZM338.622 249.459C357.909 216.053 346.277 173.102 312.69 153.711C279.104 134.32 236.091 145.722 216.804 179.128C197.517 212.534 209.15 255.485 242.736 274.876C276.322 294.267 319.335 282.865 338.622 249.459Z" fill="#E84E0F"/>
<path d="M260.942 197.642C254.665 208.512 258.437 222.44 269.367 228.75C280.296 235.06 294.244 231.363 300.52 220.492C306.796 209.622 303.024 195.694 292.095 189.384C281.165 183.074 267.218 186.771 260.942 197.642Z" fill="#E84E0F"/>
<path d="M286.596 308.098C280.707 318.299 284.247 331.368 294.503 337.29C304.759 343.211 317.847 339.742 323.737 329.541C329.626 319.34 326.087 306.27 315.831 300.348C305.575 294.427 292.486 297.897 286.596 308.098Z" fill="#04989E"/>
<path d="M245.563 344.964C243.041 349.333 244.557 354.931 248.95 357.467C253.342 360.003 258.948 358.517 261.471 354.148C263.993 349.779 262.477 344.181 258.084 341.645C253.692 339.109 248.086 340.595 245.563 344.964Z" fill="#89CED9"/>
<path d="M181.023 181.079C178.5 185.449 180.016 191.046 184.409 193.582C188.801 196.118 194.407 194.633 196.93 190.263C199.452 185.894 197.936 180.297 193.544 177.761C189.151 175.225 183.545 176.71 181.023 181.079Z" fill="#89CED9"/>
<path d="M340.337 264.359C337.815 268.728 339.331 274.326 343.724 276.862C348.116 279.398 353.722 277.912 356.244 273.543C358.767 269.174 357.251 263.577 352.858 261.041C348.466 258.504 342.86 259.99 340.337 264.359Z" fill="#89CED9"/>
<path d="M209.576 288.774C210.797 286.66 212.884 285.067 215.468 284.541C220.258 283.578 224.945 286.671 225.939 291.456L234.262 331.681C235.25 336.476 232.16 341.118 227.378 342.092C222.588 343.055 217.901 339.962 216.907 335.177L208.584 294.952C208.129 292.747 208.538 290.572 209.576 288.774Z" fill="#E84E0F"/>
<path d="M186.849 293.366C188.07 291.252 190.157 289.658 192.741 289.133C197.531 288.17 202.218 291.263 203.212 296.048L211.535 336.273C212.523 341.068 209.439 345.712 204.651 346.684C199.861 347.647 195.174 344.554 194.18 339.769L185.857 299.544C185.402 297.339 185.811 295.164 186.849 293.366Z" fill="#E84E0F"/>
<path d="M138.642 255.101C139.568 253.496 141.01 252.169 142.857 251.394L180.726 235.515C185.227 233.631 190.427 235.744 192.347 240.248C194.256 244.746 192.166 249.917 187.655 251.816L149.787 267.695C145.285 269.579 140.085 267.467 138.166 262.962C137.036 260.307 137.306 257.413 138.642 255.101Z" fill="#04989E"/>
</g>
</svg>
