<svg width="33" height="34" viewBox="0 0 33 34" fill="none" xmlns="http://www.w3.org/2000/svg">
<path d="M16.4265 31.8214C8.08692 31.8214 1.30216 25.0063 1.30216 16.6294C1.30216 8.25252 8.08692 1.43738 16.4265 1.43738C24.766 1.43738 31.5503 8.25252 31.5503 16.6294C31.5503 25.0063 24.766 31.8214 16.4265 31.8214Z" fill="white"/>
<path d="M16.4265 2.74537C24.0602 2.74537 30.2486 8.96145 30.2486 16.6294C30.2486 24.2973 24.0602 30.5134 16.4265 30.5134C8.79269 30.5134 2.60432 24.2973 2.60432 16.6294C2.60432 8.96145 8.79269 2.74537 16.4265 2.74537ZM16.4265 0.129395C7.36865 0.129395 0 7.53104 0 16.6294C0 25.7278 7.36865 33.1294 16.4265 33.1294C25.4843 33.1294 32.8529 25.7278 32.8529 16.6294C32.8529 7.53104 25.4838 0.129395 16.4265 0.129395Z" fill="#017176"/>
<path d="M16.4265 29.7998C9.19636 29.7998 3.31425 23.8913 3.31425 16.6294C3.31425 9.36745 9.19636 3.45901 16.4265 3.45901C23.6566 3.45901 29.5382 9.36693 29.5382 16.6294C29.5382 23.8919 23.656 29.7998 16.4265 29.7998Z" fill="#EDEDED"/>
<path d="M16.4265 4.2438C23.2362 4.2438 28.7569 9.78914 28.7569 16.6294C28.7569 23.4696 23.2362 29.015 16.4265 29.015C9.6167 29.015 4.09607 23.4696 4.09607 16.6294C4.09607 9.78914 9.61618 4.2438 16.4265 4.2438ZM16.4265 2.67421C8.76561 2.67421 2.53348 8.93424 2.53348 16.6294C2.53348 24.3245 8.76561 30.5846 16.4265 30.5846C24.0873 30.5846 30.3194 24.3245 30.3194 16.6294C30.3194 8.93424 24.0868 2.67421 16.4265 2.67421Z" fill="#89CED9"/>
<path d="M12.3153 21.8054C9.47398 21.8054 7.16239 19.4834 7.16239 16.6289C7.16239 13.7743 9.47398 11.4529 12.3153 11.4529C15.1566 11.4529 17.4687 13.7748 17.4687 16.6289C17.4687 19.4829 15.1571 21.8054 12.3153 21.8054Z" fill="#EDEDED"/>
<path d="M12.3153 12.4998C14.5857 12.4998 16.4265 14.3488 16.4265 16.6294C16.4265 18.91 14.5857 20.759 12.3153 20.759C10.0448 20.759 8.20412 18.91 8.20412 16.6294C8.20412 14.3488 10.0448 12.4998 12.3153 12.4998ZM12.3153 10.407C8.89947 10.407 6.12066 13.1983 6.12066 16.6294C6.12066 20.0605 8.89947 22.8518 12.3153 22.8518C15.7311 22.8518 18.5099 20.0605 18.5099 16.6294C18.5099 13.1983 15.7311 10.407 12.3153 10.407Z" fill="#E84E0F"/>
<path d="M11.7809 18.651C12.8924 18.651 13.7935 17.7459 13.7935 16.6294C13.7935 15.5129 12.8924 14.6078 11.7809 14.6078C10.6693 14.6078 9.76827 15.5129 9.76827 16.6294C9.76827 17.7459 10.6693 18.651 11.7809 18.651Z" fill="#E84E0F"/>
<path d="M19.1157 11.7993C20.1588 11.7993 21.0043 10.9499 21.0043 9.90215C21.0043 8.85441 20.1588 8.00505 19.1157 8.00505C18.0726 8.00505 17.227 8.85441 17.227 9.90215C17.227 10.9499 18.0726 11.7993 19.1157 11.7993Z" fill="#04989E"/>
<path d="M23.7597 13.3123C24.2064 13.3123 24.5686 12.9486 24.5686 12.4998C24.5686 12.0511 24.2064 11.6873 23.7597 11.6873C23.313 11.6873 22.9508 12.0511 22.9508 12.4998C22.9508 12.9486 23.313 13.3123 23.7597 13.3123Z" fill="#89CED9"/>
<path d="M14.0492 25.507C14.496 25.507 14.8581 25.1432 14.8581 24.6944C14.8581 24.2457 14.496 23.8819 14.0492 23.8819C13.6025 23.8819 13.2403 24.2457 13.2403 24.6944C13.2403 25.1432 13.6025 25.507 14.0492 25.507Z" fill="#89CED9"/>
<path d="M13.382 9.61649C13.8288 9.61649 14.1909 9.25271 14.1909 8.80397C14.1909 8.35522 13.8288 7.99145 13.382 7.99145C12.9353 7.99145 12.5731 8.35522 12.5731 8.80397C12.5731 9.25271 12.9353 9.61649 13.382 9.61649Z" fill="#89CED9"/>
<path d="M21.0439 18.5553C20.8278 18.5553 20.6132 18.4658 20.4585 18.2911C20.1725 17.9667 20.2022 17.4707 20.5251 17.1829L23.2414 14.7658C23.5654 14.478 24.0582 14.5094 24.3446 14.8327C24.6306 15.1571 24.6009 15.6531 24.278 15.9409L21.5617 18.358C21.4127 18.4904 21.2278 18.5553 21.0439 18.5553Z" fill="#E84E0F"/>
<path d="M22.4023 20.0935C22.1862 20.0935 21.9716 20.004 21.8169 19.8293C21.5309 19.5049 21.5606 19.0089 21.8835 18.7211L24.5999 16.304C24.9238 16.0162 25.4166 16.0471 25.703 16.3709C25.989 16.6953 25.9593 17.1913 25.6364 17.4791L22.9201 19.8962C22.7711 20.0286 22.5862 20.0935 22.4023 20.0935Z" fill="#E84E0F"/>
<path d="M21.6023 25.4798C21.4382 25.4798 21.2726 25.428 21.1314 25.3207L18.237 23.1217C17.8932 22.8601 17.825 22.3683 18.0854 22.022C18.3458 21.6767 18.8349 21.6081 19.1803 21.8697L22.0747 24.0687C22.4185 24.3303 22.4867 24.8221 22.2263 25.1685C22.0726 25.3725 21.8388 25.4798 21.6023 25.4798Z" fill="#04989E"/>
</svg>
